<svg xmlns="http://www.w3.org/2000/svg" viewBox="0 0 206.9 48" fill="none"><title>OpenTryOn</title><g transform="translate(-18 -8)"><rect x="26" y="10" width="20" height="36" rx="10" fill="#F05941"/><rect x="18" y="18" width="20" height="36" rx="10" fill="#F3EFE7"/></g><path fill="#F3EFE7" d="M43.77 23.41Q43.77 20.08 44.94 17.65Q46.11 15.22 48.34 13.9Q50.58 12.58 53.67 12.58Q56.73 12.58 58.95 13.9Q61.17 15.22 62.38 17.65Q63.6 20.08 63.6 23.38Q63.6 26.71 62.38 29.16Q61.17 31.6 58.94 32.94Q56.7 34.27 53.67 34.27Q50.58 34.27 48.36 32.94Q46.14 31.6 44.95 29.16Q43.77 26.71 43.77 23.41ZM47.04 23.41Q47.04 27.25 48.72 29.41Q50.4 31.57 53.67 31.57Q56.85 31.57 58.59 29.43Q60.33 27.28 60.33 23.41Q60.33 19.54 58.6 17.41Q56.88 15.28 53.67 15.28Q50.4 15.28 48.72 17.41Q47.04 19.54 47.04 23.41ZM67.29 40.48V22.51Q67.29 21.64 67.21 20.73Q67.14 19.81 67.05 18.88H69.99L70.29 22.3H69.96Q70.44 20.59 71.89 19.6Q73.35 18.61 75.36 18.61Q77.37 18.61 78.87 19.55Q80.37 20.5 81.19 22.24Q82.02 23.98 82.02 26.44Q82.02 28.87 81.19 30.64Q80.37 32.41 78.87 33.34Q77.37 34.27 75.36 34.27Q73.38 34.27 71.92 33.3Q70.47 32.32 69.99 30.64H70.32V40.48ZM74.61 31.9Q76.59 31.9 77.77 30.52Q78.96 29.14 78.96 26.44Q78.96 23.74 77.77 22.38Q76.59 21.01 74.61 21.01Q72.63 21.01 71.44 22.38Q70.26 23.74 70.26 26.44Q70.26 29.14 71.44 30.52Q72.63 31.9 74.61 31.9ZM92.25 34.27Q88.59 34.27 86.49 32.2Q84.39 30.13 84.39 26.47Q84.39 24.1 85.3 22.33Q86.22 20.56 87.85 19.59Q89.49 18.61 91.65 18.61Q93.78 18.61 95.22 19.51Q96.66 20.41 97.41 22.05Q98.16 23.68 98.16 25.9V26.86H86.76V25.12H96.09L95.58 25.51Q95.58 23.26 94.57 22.02Q93.57 20.77 91.68 20.77Q89.58 20.77 88.44 22.23Q87.3 23.68 87.3 26.23V26.53Q87.3 29.2 88.6 30.55Q89.91 31.9 92.31 31.9Q93.63 31.9 94.78 31.52Q95.94 31.15 96.99 30.28L97.98 32.35Q96.93 33.28 95.43 33.78Q93.93 34.27 92.25 34.27ZM101.34 34V22.51Q101.34 21.64 101.26 20.73Q101.19 19.81 101.1 18.88H104.04L104.31 22.06H103.95Q104.64 20.38 106.08 19.5Q107.52 18.61 109.41 18.61Q112.08 18.61 113.44 20.08Q114.81 21.55 114.81 24.64V34H111.78V24.82Q111.78 22.81 110.98 21.93Q110.19 21.04 108.57 21.04Q106.65 21.04 105.51 22.23Q104.37 23.41 104.37 25.42V34ZM124.17 34V15.46H116.94V12.85H134.52V15.46H127.29V34ZM134.49 34V22.63Q134.49 21.7 134.44 20.76Q134.4 19.81 134.31 18.88H137.25L137.58 22.78H137.1Q137.4 21.37 138.12 20.44Q138.84 19.51 139.88 19.06Q140.91 18.61 142.05 18.61Q142.53 18.61 142.86 18.66Q143.19 18.7 143.52 18.79L143.49 21.49Q142.98 21.28 142.6 21.23Q142.23 21.19 141.69 21.19Q140.37 21.19 139.44 21.77Q138.51 22.36 138.03 23.35Q137.55 24.34 137.55 25.48V34ZM146.01 40.81 145.29 38.35Q146.7 38.05 147.64 37.63Q148.59 37.21 149.22 36.53Q149.85 35.86 150.3 34.81L151.05 33.04L150.99 34.27L144.42 18.88H147.66L152.76 31.48H151.95L157.05 18.88H160.17L153.24 35.08Q152.58 36.58 151.83 37.6Q151.08 38.62 150.21 39.25Q149.34 39.88 148.29 40.24Q147.24 40.6 146.01 40.81ZM161.79 23.41Q161.79 20.08 162.96 17.65Q164.13 15.22 166.37 13.9Q168.6 12.58 171.69 12.58Q174.75 12.58 176.97 13.9Q179.19 15.22 180.4 17.65Q181.62 20.08 181.62 23.38Q181.62 26.71 180.4 29.16Q179.19 31.6 176.95 32.94Q174.72 34.27 171.69 34.27Q168.6 34.27 166.38 32.94Q164.16 31.6 162.97 29.16Q161.79 26.71 161.79 23.41ZM165.06 23.41Q165.06 27.25 166.74 29.41Q168.42 31.57 171.69 31.57Q174.87 31.57 176.61 29.43Q178.35 27.28 178.35 23.41Q178.35 19.54 176.62 17.41Q174.9 15.28 171.69 15.28Q168.42 15.28 166.74 17.41Q165.06 19.54 165.06 23.41ZM185.31 34V22.51Q185.31 21.64 185.23 20.73Q185.16 19.81 185.07 18.88H188.01L188.28 22.06H187.92Q188.61 20.38 190.05 19.5Q191.49 18.61 193.38 18.61Q196.05 18.61 197.41 20.08Q198.78 21.55 198.78 24.64V34H195.75V24.82Q195.75 22.81 194.95 21.93Q194.16 21.04 192.54 21.04Q190.62 21.04 189.48 22.23Q188.34 23.41 188.34 25.42V34Z"/></svg>